<svg xmlns:xlink="http://www.w3.org/1999/xlink" width="75ex" height="16.176ex" style="font-size: 15px; vertical-align: -11.171ex; max-width: 450;" viewBox="0 -2154.8 32291.5 6964.6" role="img" focusable="false" xmlns="http://www.w3.org/2000/svg">
<defs>
<path stroke-width="1" id="E1-MJMATHI-5A" d="M58 8Q58 23 64 35Q64 36 329 334T596 635L586 637Q575 637 512 637H500H476Q442 637 420 635T365 624T311 598T266 548T228 469Q227 466 226 463T224 458T223 453T222 450L221 448Q218 443 202 443Q185 443 182 453L214 561Q228 606 241 651Q249 679 253 681Q256 683 487 683H718Q723 678 723 675Q723 673 717 649Q189 54 188 52L185 49H274Q369 50 377 51Q452 60 500 100T579 247Q587 272 590 277T603 282H607Q628 282 628 271Q547 5 541 2Q538 0 300 0H124Q58 0 58 8Z"></path>
<path stroke-width="1" id="E1-MJMAIN-3D" d="M56 347Q56 360 70 367H707Q722 359 722 347Q722 336 708 328L390 327H72Q56 332 56 347ZM56 153Q56 168 72 173H708Q722 163 722 153Q722 140 707 133H70Q56 140 56 153Z"></path>
<path stroke-width="1" id="E1-MJMAIN-5B" d="M118 -250V750H255V710H158V-210H255V-250H118Z"></path>
<path stroke-width="1" id="E1-MJMATHI-59" d="M66 637Q54 637 49 637T39 638T32 641T30 647T33 664T42 682Q44 683 56 683Q104 680 165 680Q288 680 306 683H316Q322 677 322 674T320 656Q316 643 310 637H298Q242 637 242 624Q242 619 292 477T343 333L346 336Q350 340 358 349T379 373T411 410T454 461Q546 568 561 587T577 618Q577 634 545 637Q528 637 528 647Q528 649 530 661Q533 676 535 679T549 683Q551 683 578 682T657 680Q684 680 713 681T746 682Q763 682 763 673Q763 669 760 657T755 643Q753 637 734 637Q662 632 617 587Q608 578 477 424L348 273L322 169Q295 62 295 57Q295 46 363 46Q379 46 384 45T390 35Q390 33 388 23Q384 6 382 4T366 1Q361 1 324 1T232 2Q170 2 138 2T102 1Q84 1 84 9Q84 14 87 24Q88 27 89 30T90 35T91 39T93 42T96 44T101 45T107 45T116 46T129 46Q168 47 180 50T198 63Q201 68 227 171L252 274L129 623Q128 624 127 625T125 627T122 629T118 631T113 633T105 634T96 635T83 636T66 637Z"></path>
<path stroke-width="1" id="E1-MJMAIN-31" d="M213 578L200 573Q186 568 160 563T102 556H83V602H102Q149 604 189 617T245 641T273 663Q275 666 285 666Q294 666 302 660V361L303 61Q310 54 315 52T339 48T401 46H427V0H416Q395 3 257 3Q121 3 100 0H88V46H114Q136 46 152 46T177 47T193 50T201 52T207 57T213 61V578Z"></path>
<path stroke-width="1" id="E1-MJMAIN-2212" d="M84 237T84 250T98 270H679Q694 262 694 250T679 230H98Q84 237 84 250Z"></path>
<path stroke-width="1" id="E1-MJMATHI-3BC" d="M58 -216Q44 -216 34 -208T23 -186Q23 -176 96 116T173 414Q186 442 219 442Q231 441 239 435T249 423T251 413Q251 401 220 279T187 142Q185 131 185 107V99Q185 26 252 26Q261 26 270 27T287 31T302 38T315 45T327 55T338 65T348 77T356 88T365 100L372 110L408 253Q444 395 448 404Q461 431 491 431Q504 431 512 424T523 412T525 402L449 84Q448 79 448 68Q448 43 455 35T476 26Q485 27 496 35Q517 55 537 131Q543 151 547 152Q549 153 557 153H561Q580 153 580 144Q580 138 575 117T555 63T523 13Q510 0 491 -8Q483 -10 467 -10Q446 -10 429 -4T402 11T385 29T376 44T374 51L368 45Q362 39 350 30T324 12T288 -4T246 -11Q199 -11 153 12L129 -85Q108 -167 104 -180T92 -202Q76 -216 58 -216Z"></path>
<path stroke-width="1" id="E1-MJMATHI-3C3" d="M184 -11Q116 -11 74 34T31 147Q31 247 104 333T274 430Q275 431 414 431H552Q553 430 555 429T559 427T562 425T565 422T567 420T569 416T570 412T571 407T572 401Q572 357 507 357Q500 357 490 357T476 358H416L421 348Q439 310 439 263Q439 153 359 71T184 -11ZM361 278Q361 358 276 358Q152 358 115 184Q114 180 114 178Q106 141 106 117Q106 67 131 47T188 26Q242 26 287 73Q316 103 334 153T356 233T361 278Z"></path>
<path stroke-width="1" id="E1-MJMAIN-32" d="M109 429Q82 429 66 447T50 491Q50 562 103 614T235 666Q326 666 387 610T449 465Q449 422 429 383T381 315T301 241Q265 210 201 149L142 93L218 92Q375 92 385 97Q392 99 409 186V189H449V186Q448 183 436 95T421 3V0H50V19V31Q50 38 56 46T86 81Q115 113 136 137Q145 147 170 174T204 211T233 244T261 278T284 308T305 340T320 369T333 401T340 431T343 464Q343 527 309 573T212 619Q179 619 154 602T119 569T109 550Q109 549 114 549Q132 549 151 535T170 489Q170 464 154 447T109 429Z"></path>
<path stroke-width="1" id="E1-MJMAIN-5D" d="M22 710V750H159V-250H22V-210H119V710H22Z"></path>
<path stroke-width="1" id="E1-MJSZ4-23A1" d="M319 -645V1154H666V1070H403V-645H319Z"></path>
<path stroke-width="1" id="E1-MJSZ4-23A3" d="M319 -644V1155H403V-560H666V-644H319Z"></path>
<path stroke-width="1" id="E1-MJSZ4-23A2" d="M319 0V602H403V0H319Z"></path>
<path stroke-width="1" id="E1-MJSZ4-23A4" d="M0 1070V1154H347V-645H263V1070H0Z"></path>
<path stroke-width="1" id="E1-MJSZ4-23A6" d="M263 -560V1155H347V-644H0V-560H263Z"></path>
<path stroke-width="1" id="E1-MJSZ4-23A5" d="M263 0V602H347V0H263Z"></path>
<path stroke-width="1" id="E1-MJMAIN-2F" d="M423 750Q432 750 438 744T444 730Q444 725 271 248T92 -240Q85 -250 75 -250Q68 -250 62 -245T56 -231Q56 -221 230 257T407 740Q411 750 423 750Z"></path>
<path stroke-width="1" id="E1-MJMAIN-2C" d="M78 35T78 60T94 103T137 121Q165 121 187 96T210 8Q210 -27 201 -60T180 -117T154 -158T130 -185T117 -194Q113 -194 104 -185T95 -172Q95 -168 106 -156T131 -126T157 -76T173 -3V9L172 8Q170 7 167 6T161 3T152 1T140 0Q113 0 96 17Z"></path>
<path stroke-width="1" id="E1-MJMAIN-30" d="M96 585Q152 666 249 666Q297 666 345 640T423 548Q460 465 460 320Q460 165 417 83Q397 41 362 16T301 -15T250 -22Q224 -22 198 -16T137 16T82 83Q39 165 39 320Q39 494 96 585ZM321 597Q291 629 250 629Q208 629 178 597Q153 571 145 525T137 333Q137 175 145 125T181 46Q209 16 250 16Q290 16 318 46Q347 76 354 130T362 333Q362 478 354 524T321 597Z"></path>
<path stroke-width="1" id="E1-MJSZ3-5B" d="M247 -949V1450H516V1388H309V-887H516V-949H247Z"></path>
<path stroke-width="1" id="E1-MJSZ3-5D" d="M11 1388V1450H280V-949H11V-887H218V1388H11Z"></path>
<path stroke-width="1" id="E1-MJMATHI-44" d="M287 628Q287 635 230 637Q207 637 200 638T193 647Q193 655 197 667T204 682Q206 683 403 683Q570 682 590 682T630 676Q702 659 752 597T803 431Q803 275 696 151T444 3L430 1L236 0H125H72Q48 0 41 2T33 11Q33 13 36 25Q40 41 44 43T67 46Q94 46 127 49Q141 52 146 61Q149 65 218 339T287 628ZM703 469Q703 507 692 537T666 584T629 613T590 629T555 636Q553 636 541 636T512 636T479 637H436Q392 637 386 627Q384 623 313 339T242 52Q242 48 253 48T330 47Q335 47 349 47T373 46Q499 46 581 128Q617 164 640 212T683 339T703 469Z"></path>
<path stroke-width="1" id="E1-MJMAIN-28" d="M94 250Q94 319 104 381T127 488T164 576T202 643T244 695T277 729T302 750H315H319Q333 750 333 741Q333 738 316 720T275 667T226 581T184 443T167 250T184 58T225 -81T274 -167T316 -220T333 -241Q333 -250 318 -250H315H302L274 -226Q180 -141 137 -14T94 250Z"></path>
<path stroke-width="1" id="E1-MJMAIN-29" d="M60 749L64 750Q69 750 74 750H86L114 726Q208 641 251 514T294 250Q294 182 284 119T261 12T224 -76T186 -143T145 -194T113 -227T90 -246Q87 -249 86 -250H74Q66 -250 63 -250T58 -247T55 -238Q56 -237 66 -225Q221 -64 221 250T66 725Q56 737 55 738Q55 746 60 749Z"></path>
<path stroke-width="1" id="E1-MJMATHI-55" d="M107 637Q73 637 71 641Q70 643 70 649Q70 673 81 682Q83 683 98 683Q139 681 234 681Q268 681 297 681T342 682T362 682Q378 682 378 672Q378 670 376 658Q371 641 366 638H364Q362 638 359 638T352 638T343 637T334 637Q295 636 284 634T266 623Q265 621 238 518T184 302T154 169Q152 155 152 140Q152 86 183 55T269 24Q336 24 403 69T501 205L552 406Q599 598 599 606Q599 633 535 637Q511 637 511 648Q511 650 513 660Q517 676 519 679T529 683Q532 683 561 682T645 680Q696 680 723 681T752 682Q767 682 767 672Q767 650 759 642Q756 637 737 637Q666 633 648 597Q646 592 598 404Q557 235 548 205Q515 105 433 42T263 -22Q171 -22 116 34T60 167V183Q60 201 115 421Q164 622 164 628Q164 635 107 637Z"></path>
<path stroke-width="1" id="E1-MJMATHI-54" d="M40 437Q21 437 21 445Q21 450 37 501T71 602L88 651Q93 669 101 677H569H659Q691 677 697 676T704 667Q704 661 687 553T668 444Q668 437 649 437Q640 437 637 437T631 442L629 445Q629 451 635 490T641 551Q641 586 628 604T573 629Q568 630 515 631Q469 631 457 630T439 622Q438 621 368 343T298 60Q298 48 386 46Q418 46 427 45T436 36Q436 31 433 22Q429 4 424 1L422 0Q419 0 415 0Q410 0 363 1T228 2Q99 2 64 0H49Q43 6 43 9T45 27Q49 40 55 46H83H94Q174 46 189 55Q190 56 191 56Q196 59 201 76T241 233Q258 301 269 344Q339 619 339 625Q339 630 310 630H279Q212 630 191 624Q146 614 121 583T67 467Q60 445 57 441T43 437H40Z"></path>
<path stroke-width="1" id="E1-MJMATHI-58" d="M42 0H40Q26 0 26 11Q26 15 29 27Q33 41 36 43T55 46Q141 49 190 98Q200 108 306 224T411 342Q302 620 297 625Q288 636 234 637H206Q200 643 200 645T202 664Q206 677 212 683H226Q260 681 347 681Q380 681 408 681T453 682T473 682Q490 682 490 671Q490 670 488 658Q484 643 481 640T465 637Q434 634 411 620L488 426L541 485Q646 598 646 610Q646 628 622 635Q617 635 609 637Q594 637 594 648Q594 650 596 664Q600 677 606 683H618Q619 683 643 683T697 681T738 680Q828 680 837 683H845Q852 676 852 672Q850 647 840 637H824Q790 636 763 628T722 611T698 593L687 584Q687 585 592 480L505 384Q505 383 536 304T601 142T638 56Q648 47 699 46Q734 46 734 37Q734 35 732 23Q728 7 725 4T711 1Q708 1 678 1T589 2Q528 2 496 2T461 1Q444 1 444 10Q444 11 446 25Q448 35 450 39T455 44T464 46T480 47T506 54Q523 62 523 64Q522 64 476 181L429 299Q241 95 236 84Q232 76 232 72Q232 53 261 47Q262 47 267 47T273 46Q276 46 277 46T280 45T283 42T284 35Q284 26 282 19Q279 6 276 4T261 1Q258 1 243 1T201 2T142 2Q64 2 42 0Z"></path>
</defs>
<g stroke="currentColor" fill="currentColor" stroke-width="0" transform="matrix(1 0 0 -1 0 0)">
<g transform="translate(7021,0)">
 <use xlink:href="#E1-MJMATHI-5A" x="0" y="0"></use>
 <use xlink:href="#E1-MJMAIN-3D" x="1001" y="0"></use>
<g transform="translate(2057,0)">
<g transform="translate(0,2055)">
 <use xlink:href="#E1-MJSZ4-23A1" x="0" y="-1155"></use>
<g transform="translate(0,-1859.7221067896605) scale(1,0.1803020013095533)">
 <use xlink:href="#E1-MJSZ4-23A2"></use>
</g>
 <use xlink:href="#E1-MJSZ4-23A3" x="0" y="-2966"></use>
</g>
<g transform="translate(834,0)">
<g transform="translate(-11,0)">
<g transform="translate(0,944)">
<g transform="translate(120,0)">
<rect stroke="none" width="2662" height="60" x="0" y="220"></rect>
<g transform="translate(60,627)">
 <use transform="scale(0.707)" xlink:href="#E1-MJMATHI-59" x="0" y="0"></use>
 <use transform="scale(0.574)" xlink:href="#E1-MJMAIN-31" x="716" y="-243"></use>
 <use transform="scale(0.707)" xlink:href="#E1-MJMAIN-2212" x="1087" y="0"></use>
<g transform="translate(1319,0)">
 <use transform="scale(0.707)" xlink:href="#E1-MJMATHI-3BC" x="0" y="0"></use>
<g transform="translate(426,-183)">
 <use transform="scale(0.574)" xlink:href="#E1-MJMATHI-59" x="0" y="0"></use>
 <use transform="scale(0.574)" xlink:href="#E1-MJMAIN-31" x="763" y="0"></use>
</g>
</g>
</g>
<g transform="translate(731,-345)">
 <use transform="scale(0.707)" xlink:href="#E1-MJMATHI-3C3" x="0" y="0"></use>
<g transform="translate(404,-150)">
 <use transform="scale(0.574)" xlink:href="#E1-MJMATHI-59" x="0" y="0"></use>
 <use transform="scale(0.574)" xlink:href="#E1-MJMAIN-31" x="763" y="0"></use>
</g>
</g>
</g>
</g>
<g transform="translate(0,-1061)">
<g transform="translate(120,0)">
<rect stroke="none" width="2662" height="60" x="0" y="220"></rect>
<g transform="translate(60,627)">
 <use transform="scale(0.707)" xlink:href="#E1-MJMATHI-59" x="0" y="0"></use>
 <use transform="scale(0.574)" xlink:href="#E1-MJMAIN-32" x="716" y="-243"></use>
 <use transform="scale(0.707)" xlink:href="#E1-MJMAIN-2212" x="1087" y="0"></use>
<g transform="translate(1319,0)">
 <use transform="scale(0.707)" xlink:href="#E1-MJMATHI-3BC" x="0" y="0"></use>
<g transform="translate(426,-183)">
 <use transform="scale(0.574)" xlink:href="#E1-MJMATHI-59" x="0" y="0"></use>
 <use transform="scale(0.574)" xlink:href="#E1-MJMAIN-32" x="763" y="0"></use>
</g>
</g>
</g>
<g transform="translate(731,-345)">
 <use transform="scale(0.707)" xlink:href="#E1-MJMATHI-3C3" x="0" y="0"></use>
<g transform="translate(404,-150)">
 <use transform="scale(0.574)" xlink:href="#E1-MJMATHI-59" x="0" y="0"></use>
 <use transform="scale(0.574)" xlink:href="#E1-MJMAIN-32" x="763" y="0"></use>
</g>
</g>
</g>
</g>
</g>
</g>
<g transform="translate(3893,2055)">
 <use xlink:href="#E1-MJSZ4-23A4" x="0" y="-1155"></use>
<g transform="translate(0,-1859.7221067896605) scale(1,0.1803020013095533)">
 <use xlink:href="#E1-MJSZ4-23A5"></use>
</g>
 <use xlink:href="#E1-MJSZ4-23A6" x="0" y="-2966"></use>
</g>
</g>
 <use xlink:href="#E1-MJMAIN-3D" x="6896" y="0"></use>
<g transform="translate(7952,0)">
 <use xlink:href="#E1-MJSZ3-5B"></use>
<g transform="translate(695,0)">
<g transform="translate(-11,0)">
<g transform="translate(0,701)">
 <use xlink:href="#E1-MJMAIN-31" x="0" y="0"></use>
 <use xlink:href="#E1-MJMAIN-2F" x="500" y="0"></use>
<g transform="translate(1001,0)">
 <use xlink:href="#E1-MJMATHI-3C3" x="0" y="0"></use>
<g transform="translate(571,-150)">
 <use transform="scale(0.707)" xlink:href="#E1-MJMATHI-59" x="0" y="0"></use>
 <use transform="scale(0.707)" xlink:href="#E1-MJMAIN-31" x="763" y="0"></use>
</g>
</g>
 <use xlink:href="#E1-MJMAIN-2C" x="2566" y="0"></use>
 <use xlink:href="#E1-MJMAIN-30" x="3011" y="0"></use>
</g>
<g transform="translate(0,-750)">
 <use xlink:href="#E1-MJMAIN-30" x="0" y="0"></use>
 <use xlink:href="#E1-MJMAIN-2C" x="500" y="0"></use>
 <use xlink:href="#E1-MJMAIN-31" x="945" y="0"></use>
 <use xlink:href="#E1-MJMAIN-2F" x="1446" y="0"></use>
<g transform="translate(1946,0)">
 <use xlink:href="#E1-MJMATHI-3C3" x="0" y="0"></use>
<g transform="translate(571,-150)">
 <use transform="scale(0.707)" xlink:href="#E1-MJMATHI-59" x="0" y="0"></use>
 <use transform="scale(0.707)" xlink:href="#E1-MJMAIN-32" x="763" y="0"></use>
</g>
</g>
</g>
</g>
</g>
 <use xlink:href="#E1-MJSZ3-5D" x="4363" y="-1"></use>
</g>
<g transform="translate(13012,0)">
 <use xlink:href="#E1-MJSZ3-5B"></use>
<g transform="translate(695,0)">
<g transform="translate(-11,0)">
<g transform="translate(62,703)">
 <use xlink:href="#E1-MJMATHI-59" x="0" y="0"></use>
 <use transform="scale(0.707)" xlink:href="#E1-MJMAIN-31" x="822" y="-213"></use>
 <use xlink:href="#E1-MJMAIN-2212" x="1257" y="0"></use>
<g transform="translate(2258,0)">
 <use xlink:href="#E1-MJMATHI-3BC" x="0" y="0"></use>
<g transform="translate(603,-150)">
 <use transform="scale(0.707)" xlink:href="#E1-MJMATHI-59" x="0" y="0"></use>
 <use transform="scale(0.574)" xlink:href="#E1-MJMAIN-31" x="716" y="-243"></use>
</g>
</g>
</g>
<g transform="translate(0,-787)">
 <use xlink:href="#E1-MJMATHI-59" x="0" y="0"></use>
 <use transform="scale(0.707)" xlink:href="#E1-MJMAIN-32" x="822" y="-213"></use>
 <use xlink:href="#E1-MJMAIN-2212" x="1257" y="0"></use>
<g transform="translate(2258,0)">
 <use xlink:href="#E1-MJMATHI-3BC" x="0" y="0"></use>
<g transform="translate(603,-150)">
 <use transform="scale(0.707)" xlink:href="#E1-MJMATHI-59" x="0" y="0"></use>
 <use transform="scale(0.707)" xlink:href="#E1-MJMAIN-32" x="763" y="0"></use>
</g>
</g>
</g>
</g>
</g>
 <use xlink:href="#E1-MJSZ3-5D" x="4707" y="-1"></use>
</g>
</g>
<g transform="translate(8646,-2879)">
 <use xlink:href="#E1-MJMAIN-3D" x="0" y="0"></use>
 <use xlink:href="#E1-MJMATHI-44" x="1056" y="0"></use>
 <use xlink:href="#E1-MJMAIN-28" x="1884" y="0"></use>
 <use xlink:href="#E1-MJMATHI-59" x="2274" y="0"></use>
 <use xlink:href="#E1-MJMAIN-2212" x="3260" y="0"></use>
<g transform="translate(4260,0)">
 <use xlink:href="#E1-MJMATHI-3BC" x="0" y="0"></use>
 <use transform="scale(0.707)" xlink:href="#E1-MJMATHI-59" x="853" y="-213"></use>
</g>
 <use xlink:href="#E1-MJMAIN-29" x="5504" y="0"></use>
 <use xlink:href="#E1-MJMAIN-3D" x="6171" y="0"></use>
 <use xlink:href="#E1-MJMATHI-44" x="7227" y="0"></use>
 <use xlink:href="#E1-MJMAIN-28" x="8056" y="0"></use>
<g transform="translate(8445,0)">
 <use xlink:href="#E1-MJMATHI-55" x="0" y="0"></use>
 <use transform="scale(0.707)" xlink:href="#E1-MJMATHI-54" x="1121" y="583"></use>
</g>
 <use xlink:href="#E1-MJMATHI-58" x="9836" y="0"></use>
 <use xlink:href="#E1-MJMAIN-2212" x="10911" y="0"></use>
<g transform="translate(11912,0)">
 <use xlink:href="#E1-MJMATHI-55" x="0" y="0"></use>
 <use transform="scale(0.707)" xlink:href="#E1-MJMATHI-54" x="1121" y="583"></use>
</g>
<g transform="translate(13302,0)">
 <use xlink:href="#E1-MJMATHI-3BC" x="0" y="0"></use>
 <use transform="scale(0.707)" xlink:href="#E1-MJMATHI-58" x="853" y="-213"></use>
</g>
 <use xlink:href="#E1-MJMAIN-29" x="14609" y="0"></use>
</g>
<g transform="translate(12427,-4453)">
 <use xlink:href="#E1-MJMAIN-3D" x="0" y="0"></use>
 <use xlink:href="#E1-MJMATHI-44" x="1056" y="0"></use>
<g transform="translate(1884,0)">
 <use xlink:href="#E1-MJMATHI-55" x="0" y="0"></use>
 <use transform="scale(0.707)" xlink:href="#E1-MJMATHI-54" x="1121" y="583"></use>
</g>
 <use xlink:href="#E1-MJMAIN-28" x="3275" y="0"></use>
 <use xlink:href="#E1-MJMATHI-58" x="3665" y="0"></use>
 <use xlink:href="#E1-MJMAIN-2212" x="4739" y="0"></use>
<g transform="translate(5740,0)">
 <use xlink:href="#E1-MJMATHI-3BC" x="0" y="0"></use>
 <use transform="scale(0.707)" xlink:href="#E1-MJMATHI-58" x="853" y="-213"></use>
</g>
 <use xlink:href="#E1-MJMAIN-29" x="7046" y="0"></use>
</g>
</g>
</svg>