<svg xmlns:xlink="http://www.w3.org/1999/xlink" width="75ex" height="36.176ex" style="font-size: 15px; vertical-align: -17.505ex; max-width: 450;" viewBox="0 -8039 32291.5 15575.7" role="img" focusable="false" xmlns="http://www.w3.org/2000/svg">
<defs>
<path stroke-width="1" id="E1-MJMATHI-5A" d="M58 8Q58 23 64 35Q64 36 329 334T596 635L586 637Q575 637 512 637H500H476Q442 637 420 635T365 624T311 598T266 548T228 469Q227 466 226 463T224 458T223 453T222 450L221 448Q218 443 202 443Q185 443 182 453L214 561Q228 606 241 651Q249 679 253 681Q256 683 487 683H718Q723 678 723 675Q723 673 717 649Q189 54 188 52L185 49H274Q369 50 377 51Q452 60 500 100T579 247Q587 272 590 277T603 282H607Q628 282 628 271Q547 5 541 2Q538 0 300 0H124Q58 0 58 8Z"></path>
<path stroke-width="1" id="E1-MJMAIN-20D7" d="M-123 694Q-123 702 -118 708T-103 714Q-93 714 -88 706T-80 687T-67 660T-40 633Q-29 626 -29 615Q-29 606 -36 600T-53 590T-83 571T-121 531Q-135 516 -143 516T-157 522T-163 536T-152 559T-129 584T-116 595H-287L-458 596Q-459 597 -461 599T-466 602T-469 607T-471 615Q-471 622 -458 635H-99Q-123 673 -123 694Z"></path>
<path stroke-width="1" id="E1-MJMAIN-22A4" d="M55 642T55 648T59 659T66 666T71 668H708Q723 660 723 648T708 628H409V15Q402 2 391 0Q387 0 384 1T379 3T375 6T373 9T371 13T369 16V628H71Q70 628 67 630T59 637Z"></path>
<path stroke-width="1" id="E1-MJMAIN-3D" d="M56 347Q56 360 70 367H707Q722 359 722 347Q722 336 708 328L390 327H72Q56 332 56 347ZM56 153Q56 168 72 173H708Q722 163 722 153Q722 140 707 133H70Q56 140 56 153Z"></path>
<path stroke-width="1" id="E1-MJMAIN-5B" d="M118 -250V750H255V710H158V-210H255V-250H118Z"></path>
<path stroke-width="1" id="E1-MJMATHI-51" d="M399 -80Q399 -47 400 -30T402 -11V-7L387 -11Q341 -22 303 -22Q208 -22 138 35T51 201Q50 209 50 244Q50 346 98 438T227 601Q351 704 476 704Q514 704 524 703Q621 689 680 617T740 435Q740 255 592 107Q529 47 461 16L444 8V3Q444 2 449 -24T470 -66T516 -82Q551 -82 583 -60T625 -3Q631 11 638 11Q647 11 649 2Q649 -6 639 -34T611 -100T557 -165T481 -194Q399 -194 399 -87V-80ZM636 468Q636 523 621 564T580 625T530 655T477 665Q429 665 379 640Q277 591 215 464T153 216Q153 110 207 59Q231 38 236 38V46Q236 86 269 120T347 155Q372 155 390 144T417 114T429 82T435 55L448 64Q512 108 557 185T619 334T636 468ZM314 18Q362 18 404 39L403 49Q399 104 366 115Q354 117 347 117Q344 117 341 117T337 118Q317 118 296 98T274 52Q274 18 314 18Z"></path>
<path stroke-width="1" id="E1-MJMAIN-28" d="M94 250Q94 319 104 381T127 488T164 576T202 643T244 695T277 729T302 750H315H319Q333 750 333 741Q333 738 316 720T275 667T226 581T184 443T167 250T184 58T225 -81T274 -167T316 -220T333 -241Q333 -250 318 -250H315H302L274 -226Q180 -141 137 -14T94 250Z"></path>
<path stroke-width="1" id="E1-MJMATHI-58" d="M42 0H40Q26 0 26 11Q26 15 29 27Q33 41 36 43T55 46Q141 49 190 98Q200 108 306 224T411 342Q302 620 297 625Q288 636 234 637H206Q200 643 200 645T202 664Q206 677 212 683H226Q260 681 347 681Q380 681 408 681T453 682T473 682Q490 682 490 671Q490 670 488 658Q484 643 481 640T465 637Q434 634 411 620L488 426L541 485Q646 598 646 610Q646 628 622 635Q617 635 609 637Q594 637 594 648Q594 650 596 664Q600 677 606 683H618Q619 683 643 683T697 681T738 680Q828 680 837 683H845Q852 676 852 672Q850 647 840 637H824Q790 636 763 628T722 611T698 593L687 584Q687 585 592 480L505 384Q505 383 536 304T601 142T638 56Q648 47 699 46Q734 46 734 37Q734 35 732 23Q728 7 725 4T711 1Q708 1 678 1T589 2Q528 2 496 2T461 1Q444 1 444 10Q444 11 446 25Q448 35 450 39T455 44T464 46T480 47T506 54Q523 62 523 64Q522 64 476 181L429 299Q241 95 236 84Q232 76 232 72Q232 53 261 47Q262 47 267 47T273 46Q276 46 277 46T280 45T283 42T284 35Q284 26 282 19Q279 6 276 4T261 1Q258 1 243 1T201 2T142 2Q64 2 42 0Z"></path>
<path stroke-width="1" id="E1-MJMAIN-2212" d="M84 237T84 250T98 270H679Q694 262 694 250T679 230H98Q84 237 84 250Z"></path>
<path stroke-width="1" id="E1-MJMATHI-3BC" d="M58 -216Q44 -216 34 -208T23 -186Q23 -176 96 116T173 414Q186 442 219 442Q231 441 239 435T249 423T251 413Q251 401 220 279T187 142Q185 131 185 107V99Q185 26 252 26Q261 26 270 27T287 31T302 38T315 45T327 55T338 65T348 77T356 88T365 100L372 110L408 253Q444 395 448 404Q461 431 491 431Q504 431 512 424T523 412T525 402L449 84Q448 79 448 68Q448 43 455 35T476 26Q485 27 496 35Q517 55 537 131Q543 151 547 152Q549 153 557 153H561Q580 153 580 144Q580 138 575 117T555 63T523 13Q510 0 491 -8Q483 -10 467 -10Q446 -10 429 -4T402 11T385 29T376 44T374 51L368 45Q362 39 350 30T324 12T288 -4T246 -11Q199 -11 153 12L129 -85Q108 -167 104 -180T92 -202Q76 -216 58 -216Z"></path>
<path stroke-width="1" id="E1-MJMAIN-29" d="M60 749L64 750Q69 750 74 750H86L114 726Q208 641 251 514T294 250Q294 182 284 119T261 12T224 -76T186 -143T145 -194T113 -227T90 -246Q87 -249 86 -250H74Q66 -250 63 -250T58 -247T55 -238Q56 -237 66 -225Q221 -64 221 250T66 725Q56 737 55 738Q55 746 60 749Z"></path>
<path stroke-width="1" id="E1-MJMAIN-5D" d="M22 710V750H159V-250H22V-210H119V710H22Z"></path>
<path stroke-width="1" id="E1-MJMAIN-39B" d="M320 708Q326 716 340 716H348H355Q367 716 372 708Q374 706 423 547T523 226T575 62Q581 52 591 50T634 46H661V0H653Q644 3 532 3Q411 3 390 0H379V46H392Q464 46 464 65Q463 70 390 305T316 539L246 316Q177 95 177 84Q177 72 198 59T248 46H253V0H245Q230 3 130 3Q47 3 38 0H32V46H45Q112 51 127 91Q128 92 224 399T320 708Z"></path>
<path stroke-width="1" id="E1-MJMAIN-31" d="M213 578L200 573Q186 568 160 563T102 556H83V602H102Q149 604 189 617T245 641T273 663Q275 666 285 666Q294 666 302 660V361L303 61Q310 54 315 52T339 48T401 46H427V0H416Q395 3 257 3Q121 3 100 0H88V46H114Q136 46 152 46T177 47T193 50T201 52T207 57T213 61V578Z"></path>
<path stroke-width="1" id="E1-MJMAIN-32" d="M109 429Q82 429 66 447T50 491Q50 562 103 614T235 666Q326 666 387 610T449 465Q449 422 429 383T381 315T301 241Q265 210 201 149L142 93L218 92Q375 92 385 97Q392 99 409 186V189H449V186Q448 183 436 95T421 3V0H50V19V31Q50 38 56 46T86 81Q115 113 136 137Q145 147 170 174T204 211T233 244T261 278T284 308T305 340T320 369T333 401T340 431T343 464Q343 527 309 573T212 619Q179 619 154 602T119 569T109 550Q109 549 114 549Q132 549 151 535T170 489Q170 464 154 447T109 429Z"></path>
<path stroke-width="1" id="E1-MJMAIN-22C5" d="M78 250Q78 274 95 292T138 310Q162 310 180 294T199 251Q199 226 182 208T139 190T96 207T78 250Z"></path>
<path stroke-width="1" id="E1-MJMATHI-3BB" d="M166 673Q166 685 183 694H202Q292 691 316 644Q322 629 373 486T474 207T524 67Q531 47 537 34T546 15T551 6T555 2T556 -2T550 -11H482Q457 3 450 18T399 152L354 277L340 262Q327 246 293 207T236 141Q211 112 174 69Q123 9 111 -1T83 -12Q47 -12 47 20Q47 37 61 52T199 187Q229 216 266 252T321 306L338 322Q338 323 288 462T234 612Q214 657 183 657Q166 657 166 673Z"></path>
<path stroke-width="1" id="E1-MJSZ1-221A" d="M263 249Q264 249 315 130T417 -108T470 -228L725 302Q981 837 982 839Q989 850 1001 850Q1008 850 1013 844T1020 832V826L741 243Q645 43 540 -176Q479 -303 469 -324T453 -348Q449 -350 436 -350L424 -349L315 -96Q206 156 205 156L171 130Q138 104 137 104L111 130L263 249Z"></path>
<path stroke-width="1" id="E1-MJMAIN-30" d="M96 585Q152 666 249 666Q297 666 345 640T423 548Q460 465 460 320Q460 165 417 83Q397 41 362 16T301 -15T250 -22Q224 -22 198 -16T137 16T82 83Q39 165 39 320Q39 494 96 585ZM321 597Q291 629 250 629Q208 629 178 597Q153 571 145 525T137 333Q137 175 145 125T181 46Q209 16 250 16Q290 16 318 46Q347 76 354 130T362 333Q362 478 354 524T321 597Z"></path>
<path stroke-width="1" id="E1-MJSZ4-23A1" d="M319 -645V1154H666V1070H403V-645H319Z"></path>
<path stroke-width="1" id="E1-MJSZ4-23A3" d="M319 -644V1155H403V-560H666V-644H319Z"></path>
<path stroke-width="1" id="E1-MJSZ4-23A2" d="M319 0V602H403V0H319Z"></path>
<path stroke-width="1" id="E1-MJSZ4-23A4" d="M0 1070V1154H347V-645H263V1070H0Z"></path>
<path stroke-width="1" id="E1-MJSZ4-23A6" d="M263 -560V1155H347V-644H0V-560H263Z"></path>
<path stroke-width="1" id="E1-MJSZ4-23A5" d="M263 0V602H347V0H263Z"></path>
<path stroke-width="1" id="E1-MJMAIN-38" d="M70 417T70 494T124 618T248 666Q319 666 374 624T429 515Q429 485 418 459T392 417T361 389T335 371T324 363L338 354Q352 344 366 334T382 323Q457 264 457 174Q457 95 399 37T249 -22Q159 -22 101 29T43 155Q43 263 172 335L154 348Q133 361 127 368Q70 417 70 494ZM286 386L292 390Q298 394 301 396T311 403T323 413T334 425T345 438T355 454T364 471T369 491T371 513Q371 556 342 586T275 624Q268 625 242 625Q201 625 165 599T128 534Q128 511 141 492T167 463T217 431Q224 426 228 424L286 386ZM250 21Q308 21 350 55T392 137Q392 154 387 169T375 194T353 216T330 234T301 253T274 270Q260 279 244 289T218 306L210 311Q204 311 181 294T133 239T107 157Q107 98 150 60T250 21Z"></path>
</defs>
<g stroke="currentColor" fill="currentColor" stroke-width="0" transform="matrix(1 0 0 -1 0 0)">
<g transform="translate(30511,0)">
<g id="mjx-eqn-18" transform="translate(0,-5698)">
 <use xlink:href="#E1-MJMAIN-28"></use>
 <use xlink:href="#E1-MJMAIN-31" x="389" y="0"></use>
 <use xlink:href="#E1-MJMAIN-38" x="890" y="0"></use>
 <use xlink:href="#E1-MJMAIN-29" x="1390" y="0"></use>
</g>
</g>
<g transform="translate(6048,0)">
<g transform="translate(-11,0)">
<g transform="translate(0,6709)">
 <use xlink:href="#E1-MJMATHI-5A" x="0" y="0"></use>
 <use xlink:href="#E1-MJMAIN-20D7" x="706" y="276"></use>
 <use transform="scale(0.707)" xlink:href="#E1-MJMAIN-22A4" x="1023" y="1016"></use>
<g transform="translate(1373,0)">
 <use xlink:href="#E1-MJMATHI-5A" x="0" y="0"></use>
 <use xlink:href="#E1-MJMAIN-20D7" x="706" y="276"></use>
</g>
</g>
</g>
<g transform="translate(2087,0)">
<g transform="translate(0,6709)">
 <use xlink:href="#E1-MJMAIN-3D" x="277" y="0"></use>
 <use xlink:href="#E1-MJMAIN-5B" x="1334" y="0"></use>
<g transform="translate(1612,0)">
 <use xlink:href="#E1-MJMATHI-51" x="0" y="0"></use>
 <use transform="scale(0.707)" xlink:href="#E1-MJMAIN-22A4" x="1119" y="583"></use>
</g>
 <use xlink:href="#E1-MJMAIN-28" x="3054" y="0"></use>
<g transform="translate(3444,0)">
 <use xlink:href="#E1-MJMATHI-58" x="0" y="0"></use>
 <use xlink:href="#E1-MJMAIN-20D7" x="760" y="276"></use>
</g>
 <use xlink:href="#E1-MJMAIN-2212" x="4518" y="0"></use>
<g transform="translate(5519,0)">
 <use xlink:href="#E1-MJMATHI-3BC" x="0" y="0"></use>
 <use xlink:href="#E1-MJMAIN-20D7" x="564" y="35"></use>
</g>
 <use xlink:href="#E1-MJMAIN-29" x="6122" y="0"></use>
<g transform="translate(6512,0)">
 <use xlink:href="#E1-MJMAIN-5D" x="0" y="0"></use>
 <use transform="scale(0.707)" xlink:href="#E1-MJMAIN-22A4" x="393" y="583"></use>
</g>
<g transform="translate(7441,0)">
 <use xlink:href="#E1-MJMAIN-39B" x="0" y="0"></use>
<g transform="translate(694,412)">
 <use transform="scale(0.707)" xlink:href="#E1-MJMAIN-2212" x="0" y="0"></use>
 <use transform="scale(0.707)" xlink:href="#E1-MJMAIN-31" x="778" y="0"></use>
</g>
</g>
 <use xlink:href="#E1-MJMAIN-5B" x="9140" y="0"></use>
<g transform="translate(9418,0)">
 <use xlink:href="#E1-MJMATHI-51" x="0" y="0"></use>
 <use transform="scale(0.707)" xlink:href="#E1-MJMAIN-22A4" x="1119" y="583"></use>
</g>
 <use xlink:href="#E1-MJMAIN-28" x="10860" y="0"></use>
<g transform="translate(11250,0)">
 <use xlink:href="#E1-MJMATHI-58" x="0" y="0"></use>
 <use xlink:href="#E1-MJMAIN-20D7" x="760" y="276"></use>
</g>
 <use xlink:href="#E1-MJMAIN-2212" x="12325" y="0"></use>
<g transform="translate(13325,0)">
 <use xlink:href="#E1-MJMATHI-3BC" x="0" y="0"></use>
 <use xlink:href="#E1-MJMAIN-20D7" x="564" y="35"></use>
</g>
 <use xlink:href="#E1-MJMAIN-29" x="13929" y="0"></use>
 <use xlink:href="#E1-MJMAIN-5D" x="14318" y="0"></use>
</g>
<g transform="translate(0,4894)">
 <use xlink:href="#E1-MJMAIN-3D" x="277" y="0"></use>
 <use xlink:href="#E1-MJMAIN-5B" x="1334" y="0"></use>
<g transform="translate(1612,0)">
 <use xlink:href="#E1-MJMATHI-51" x="0" y="0"></use>
 <use transform="scale(0.707)" xlink:href="#E1-MJMAIN-22A4" x="1119" y="583"></use>
</g>
 <use xlink:href="#E1-MJMAIN-28" x="3054" y="0"></use>
<g transform="translate(3444,0)">
 <use xlink:href="#E1-MJMATHI-58" x="0" y="0"></use>
 <use xlink:href="#E1-MJMAIN-20D7" x="760" y="276"></use>
</g>
 <use xlink:href="#E1-MJMAIN-2212" x="4518" y="0"></use>
<g transform="translate(5519,0)">
 <use xlink:href="#E1-MJMATHI-3BC" x="0" y="0"></use>
 <use xlink:href="#E1-MJMAIN-20D7" x="564" y="35"></use>
</g>
 <use xlink:href="#E1-MJMAIN-29" x="6122" y="0"></use>
<g transform="translate(6512,0)">
 <use xlink:href="#E1-MJMAIN-5D" x="0" y="0"></use>
 <use transform="scale(0.707)" xlink:href="#E1-MJMAIN-22A4" x="393" y="583"></use>
</g>
 <use xlink:href="#E1-MJMAIN-28" x="7441" y="0"></use>
<g transform="translate(7830,0)">
 <use xlink:href="#E1-MJMAIN-39B" x="0" y="0"></use>
<g transform="translate(694,508)">
 <use transform="scale(0.707)" xlink:href="#E1-MJMAIN-2212" x="0" y="0"></use>
<g transform="translate(550,0)">
<g transform="translate(120,0)">
<rect stroke="none" width="407" height="60" x="0" y="146"></rect>
 <use transform="scale(0.574)" xlink:href="#E1-MJMAIN-31" x="104" y="647"></use>
 <use transform="scale(0.574)" xlink:href="#E1-MJMAIN-32" x="104" y="-698"></use>
</g>
</g>
</g>
</g>
<g transform="translate(9823,0)">
 <use xlink:href="#E1-MJMAIN-29" x="0" y="0"></use>
 <use transform="scale(0.707)" xlink:href="#E1-MJMAIN-22A4" x="550" y="583"></use>
</g>
<g transform="translate(10863,0)">
 <use xlink:href="#E1-MJMAIN-39B" x="0" y="0"></use>
<g transform="translate(694,508)">
 <use transform="scale(0.707)" xlink:href="#E1-MJMAIN-2212" x="0" y="0"></use>
<g transform="translate(550,0)">
<g transform="translate(120,0)">
<rect stroke="none" width="407" height="60" x="0" y="146"></rect>
 <use transform="scale(0.574)" xlink:href="#E1-MJMAIN-31" x="104" y="647"></use>
 <use transform="scale(0.574)" xlink:href="#E1-MJMAIN-32" x="104" y="-698"></use>
</g>
</g>
</g>
</g>
 <use xlink:href="#E1-MJMAIN-5B" x="12855" y="0"></use>
<g transform="translate(13134,0)">
 <use xlink:href="#E1-MJMATHI-51" x="0" y="0"></use>
 <use transform="scale(0.707)" xlink:href="#E1-MJMAIN-22A4" x="1119" y="583"></use>
</g>
 <use xlink:href="#E1-MJMAIN-28" x="14576" y="0"></use>
<g transform="translate(14965,0)">
 <use xlink:href="#E1-MJMATHI-58" x="0" y="0"></use>
 <use xlink:href="#E1-MJMAIN-20D7" x="760" y="276"></use>
</g>
 <use xlink:href="#E1-MJMAIN-2212" x="16040" y="0"></use>
<g transform="translate(17040,0)">
 <use xlink:href="#E1-MJMATHI-3BC" x="0" y="0"></use>
 <use xlink:href="#E1-MJMAIN-20D7" x="564" y="35"></use>
</g>
 <use xlink:href="#E1-MJMAIN-29" x="17644" y="0"></use>
 <use xlink:href="#E1-MJMAIN-5D" x="18033" y="0"></use>
</g>
<g transform="translate(0,3079)">
 <use xlink:href="#E1-MJMAIN-3D" x="277" y="0"></use>
 <use xlink:href="#E1-MJMAIN-5B" x="1334" y="0"></use>
<g transform="translate(1612,0)">
 <use xlink:href="#E1-MJMAIN-39B" x="0" y="0"></use>
<g transform="translate(694,508)">
 <use transform="scale(0.707)" xlink:href="#E1-MJMAIN-2212" x="0" y="0"></use>
<g transform="translate(550,0)">
<g transform="translate(120,0)">
<rect stroke="none" width="407" height="60" x="0" y="146"></rect>
 <use transform="scale(0.574)" xlink:href="#E1-MJMAIN-31" x="104" y="647"></use>
 <use transform="scale(0.574)" xlink:href="#E1-MJMAIN-32" x="104" y="-698"></use>
</g>
</g>
</g>
</g>
<g transform="translate(3604,0)">
 <use xlink:href="#E1-MJMATHI-51" x="0" y="0"></use>
 <use transform="scale(0.707)" xlink:href="#E1-MJMAIN-22A4" x="1119" y="583"></use>
</g>
 <use xlink:href="#E1-MJMAIN-28" x="5046" y="0"></use>
<g transform="translate(5436,0)">
 <use xlink:href="#E1-MJMATHI-58" x="0" y="0"></use>
 <use xlink:href="#E1-MJMAIN-20D7" x="760" y="276"></use>
</g>
 <use xlink:href="#E1-MJMAIN-2212" x="6511" y="0"></use>
<g transform="translate(7511,0)">
 <use xlink:href="#E1-MJMATHI-3BC" x="0" y="0"></use>
 <use xlink:href="#E1-MJMAIN-20D7" x="564" y="35"></use>
</g>
 <use xlink:href="#E1-MJMAIN-29" x="8115" y="0"></use>
<g transform="translate(8504,0)">
 <use xlink:href="#E1-MJMAIN-5D" x="0" y="0"></use>
 <use transform="scale(0.707)" xlink:href="#E1-MJMAIN-22A4" x="393" y="583"></use>
</g>
 <use xlink:href="#E1-MJMAIN-5B" x="9433" y="0"></use>
<g transform="translate(9712,0)">
 <use xlink:href="#E1-MJMAIN-39B" x="0" y="0"></use>
<g transform="translate(694,508)">
 <use transform="scale(0.707)" xlink:href="#E1-MJMAIN-2212" x="0" y="0"></use>
<g transform="translate(550,0)">
<g transform="translate(120,0)">
<rect stroke="none" width="407" height="60" x="0" y="146"></rect>
 <use transform="scale(0.574)" xlink:href="#E1-MJMAIN-31" x="104" y="647"></use>
 <use transform="scale(0.574)" xlink:href="#E1-MJMAIN-32" x="104" y="-698"></use>
</g>
</g>
</g>
</g>
<g transform="translate(11704,0)">
 <use xlink:href="#E1-MJMATHI-51" x="0" y="0"></use>
 <use transform="scale(0.707)" xlink:href="#E1-MJMAIN-22A4" x="1119" y="583"></use>
</g>
 <use xlink:href="#E1-MJMAIN-28" x="13146" y="0"></use>
<g transform="translate(13536,0)">
 <use xlink:href="#E1-MJMATHI-58" x="0" y="0"></use>
 <use xlink:href="#E1-MJMAIN-20D7" x="760" y="276"></use>
</g>
 <use xlink:href="#E1-MJMAIN-2212" x="14610" y="0"></use>
<g transform="translate(15611,0)">
 <use xlink:href="#E1-MJMATHI-3BC" x="0" y="0"></use>
 <use xlink:href="#E1-MJMAIN-20D7" x="564" y="35"></use>
</g>
 <use xlink:href="#E1-MJMAIN-29" x="16215" y="0"></use>
 <use xlink:href="#E1-MJMAIN-5D" x="16604" y="0"></use>
</g>
<g transform="translate(0,1265)">
 <use xlink:href="#E1-MJMAIN-3D" x="277" y="0"></use>
 <use xlink:href="#E1-MJMAIN-5B" x="1334" y="0"></use>
 <use xlink:href="#E1-MJMAIN-28" x="1612" y="0"></use>
 <use xlink:href="#E1-MJMATHI-51" x="2002" y="0"></use>
<g transform="translate(2793,0)">
 <use xlink:href="#E1-MJMAIN-39B" x="0" y="0"></use>
<g transform="translate(694,508)">
 <use transform="scale(0.707)" xlink:href="#E1-MJMAIN-2212" x="0" y="0"></use>
<g transform="translate(550,0)">
<g transform="translate(120,0)">
<rect stroke="none" width="407" height="60" x="0" y="146"></rect>
 <use transform="scale(0.574)" xlink:href="#E1-MJMAIN-31" x="104" y="647"></use>
 <use transform="scale(0.574)" xlink:href="#E1-MJMAIN-32" x="104" y="-698"></use>
</g>
</g>
</g>
</g>
<g transform="translate(4785,0)">
 <use xlink:href="#E1-MJMAIN-29" x="0" y="0"></use>
 <use transform="scale(0.707)" xlink:href="#E1-MJMAIN-22A4" x="550" y="583"></use>
</g>
 <use xlink:href="#E1-MJMAIN-28" x="5825" y="0"></use>
<g transform="translate(6215,0)">
 <use xlink:href="#E1-MJMATHI-58" x="0" y="0"></use>
 <use xlink:href="#E1-MJMAIN-20D7" x="760" y="276"></use>
</g>
 <use xlink:href="#E1-MJMAIN-2212" x="7290" y="0"></use>
<g transform="translate(8290,0)">
 <use xlink:href="#E1-MJMATHI-3BC" x="0" y="0"></use>
 <use xlink:href="#E1-MJMAIN-20D7" x="564" y="35"></use>
</g>
 <use xlink:href="#E1-MJMAIN-29" x="8894" y="0"></use>
<g transform="translate(9283,0)">
 <use xlink:href="#E1-MJMAIN-5D" x="0" y="0"></use>
 <use transform="scale(0.707)" xlink:href="#E1-MJMAIN-22A4" x="393" y="583"></use>
</g>
 <use xlink:href="#E1-MJMAIN-5B" x="10212" y="0"></use>
 <use xlink:href="#E1-MJMAIN-28" x="10491" y="0"></use>
 <use xlink:href="#E1-MJMATHI-51" x="10880" y="0"></use>
<g transform="translate(11672,0)">
 <use xlink:href="#E1-MJMAIN-39B" x="0" y="0"></use>
<g transform="translate(694,508)">
 <use transform="scale(0.707)" xlink:href="#E1-MJMAIN-2212" x="0" y="0"></use>
<g transform="translate(550,0)">
<g transform="translate(120,0)">
<rect stroke="none" width="407" height="60" x="0" y="146"></rect>
 <use transform="scale(0.574)" xlink:href="#E1-MJMAIN-31" x="104" y="647"></use>
 <use transform="scale(0.574)" xlink:href="#E1-MJMAIN-32" x="104" y="-698"></use>
</g>
</g>
</g>
</g>
<g transform="translate(13664,0)">
 <use xlink:href="#E1-MJMAIN-29" x="0" y="0"></use>
 <use transform="scale(0.707)" xlink:href="#E1-MJMAIN-22A4" x="550" y="583"></use>
</g>
 <use xlink:href="#E1-MJMAIN-28" x="14704" y="0"></use>
<g transform="translate(15094,0)">
 <use xlink:href="#E1-MJMATHI-58" x="0" y="0"></use>
 <use xlink:href="#E1-MJMAIN-20D7" x="760" y="276"></use>
</g>
 <use xlink:href="#E1-MJMAIN-2212" x="16168" y="0"></use>
<g transform="translate(17169,0)">
 <use xlink:href="#E1-MJMATHI-3BC" x="0" y="0"></use>
 <use xlink:href="#E1-MJMAIN-20D7" x="564" y="35"></use>
</g>
 <use xlink:href="#E1-MJMAIN-29" x="17773" y="0"></use>
 <use xlink:href="#E1-MJMAIN-5D" x="18162" y="0"></use>
</g>
<g transform="translate(0,-1490)">
 <use xlink:href="#E1-MJMAIN-3D" x="277" y="0"></use>
 <use xlink:href="#E1-MJMAIN-5B" x="1334" y="0"></use>
 <use xlink:href="#E1-MJMAIN-28" x="1612" y="0"></use>
 <use xlink:href="#E1-MJMATHI-51" x="2002" y="0"></use>
 <use xlink:href="#E1-MJMAIN-22C5" x="3015" y="0"></use>
<g transform="translate(3516,0)">
<g transform="translate(0,2203)">
 <use xlink:href="#E1-MJSZ4-23A1" x="0" y="-1155"></use>
<g transform="translate(0,-2155.953111347987) scale(1,0.6715640320862141)">
 <use xlink:href="#E1-MJSZ4-23A2"></use>
</g>
 <use xlink:href="#E1-MJSZ4-23A3" x="0" y="-3263"></use>
</g>
<g transform="translate(834,0)">
<g transform="translate(-11,0)">
<g transform="translate(0,1286)">
<g transform="translate(120,0)">
<rect stroke="none" width="1598" height="60" x="0" y="220"></rect>
 <use transform="scale(0.707)" xlink:href="#E1-MJMAIN-31" x="879" y="629"></use>
<g transform="translate(60,-577)">
 <use transform="scale(0.707)" xlink:href="#E1-MJSZ1-221A" x="0" y="-18"></use>
<rect stroke="none" width="770" height="42" x="707" y="546"></rect>
<g transform="translate(707,0)">
 <use transform="scale(0.707)" xlink:href="#E1-MJMATHI-3BB" x="0" y="0"></use>
 <use transform="scale(0.574)" xlink:href="#E1-MJMAIN-31" x="718" y="-243"></use>
</g>
</g>
</g>
</g>
 <use xlink:href="#E1-MJMAIN-30" x="668" y="-867"></use>
</g>
<g transform="translate(2827,0)">
 <use xlink:href="#E1-MJMAIN-30" x="668" y="1286"></use>
<g transform="translate(0,-867)">
<g transform="translate(120,0)">
<rect stroke="none" width="1598" height="60" x="0" y="220"></rect>
 <use transform="scale(0.707)" xlink:href="#E1-MJMAIN-31" x="879" y="629"></use>
<g transform="translate(60,-577)">
 <use transform="scale(0.707)" xlink:href="#E1-MJSZ1-221A" x="0" y="-18"></use>
<rect stroke="none" width="770" height="42" x="707" y="546"></rect>
<g transform="translate(707,0)">
 <use transform="scale(0.707)" xlink:href="#E1-MJMATHI-3BB" x="0" y="0"></use>
 <use transform="scale(0.574)" xlink:href="#E1-MJMAIN-32" x="718" y="-243"></use>
</g>
</g>
</g>
</g>
</g>
</g>
<g transform="translate(5667,2203)">
 <use xlink:href="#E1-MJSZ4-23A4" x="0" y="-1155"></use>
<g transform="translate(0,-2155.953111347987) scale(1,0.6715640320862141)">
 <use xlink:href="#E1-MJSZ4-23A5"></use>
</g>
 <use xlink:href="#E1-MJSZ4-23A6" x="0" y="-3263"></use>
</g>
</g>
<g transform="translate(9851,0)">
 <use xlink:href="#E1-MJMAIN-29" x="0" y="0"></use>
 <use transform="scale(0.707)" xlink:href="#E1-MJMAIN-22A4" x="550" y="583"></use>
</g>
 <use xlink:href="#E1-MJMAIN-28" x="10891" y="0"></use>
<g transform="translate(11280,0)">
 <use xlink:href="#E1-MJMATHI-58" x="0" y="0"></use>
 <use xlink:href="#E1-MJMAIN-20D7" x="760" y="276"></use>
</g>
 <use xlink:href="#E1-MJMAIN-2212" x="12355" y="0"></use>
<g transform="translate(13356,0)">
 <use xlink:href="#E1-MJMATHI-3BC" x="0" y="0"></use>
 <use xlink:href="#E1-MJMAIN-20D7" x="564" y="35"></use>
</g>
 <use xlink:href="#E1-MJMAIN-29" x="13959" y="0"></use>
<g transform="translate(14349,0)">
 <use xlink:href="#E1-MJMAIN-5D" x="0" y="0"></use>
 <use transform="scale(0.707)" xlink:href="#E1-MJMAIN-22A4" x="393" y="583"></use>
</g>
</g>
<g transform="translate(0,-5698)">
 <use xlink:href="#E1-MJMAIN-22C5" x="222" y="0"></use>
 <use xlink:href="#E1-MJMAIN-5B" x="1222" y="0"></use>
 <use xlink:href="#E1-MJMAIN-28" x="1501" y="0"></use>
 <use xlink:href="#E1-MJMATHI-51" x="1890" y="0"></use>
 <use xlink:href="#E1-MJMAIN-22C5" x="2904" y="0"></use>
<g transform="translate(3405,0)">
<g transform="translate(0,2203)">
 <use xlink:href="#E1-MJSZ4-23A1" x="0" y="-1155"></use>
<g transform="translate(0,-2155.953111347987) scale(1,0.6715640320862141)">
 <use xlink:href="#E1-MJSZ4-23A2"></use>
</g>
 <use xlink:href="#E1-MJSZ4-23A3" x="0" y="-3263"></use>
</g>
<g transform="translate(834,0)">
<g transform="translate(-11,0)">
<g transform="translate(0,1286)">
<g transform="translate(120,0)">
<rect stroke="none" width="1598" height="60" x="0" y="220"></rect>
 <use transform="scale(0.707)" xlink:href="#E1-MJMAIN-31" x="879" y="629"></use>
<g transform="translate(60,-577)">
 <use transform="scale(0.707)" xlink:href="#E1-MJSZ1-221A" x="0" y="-18"></use>
<rect stroke="none" width="770" height="42" x="707" y="546"></rect>
<g transform="translate(707,0)">
 <use transform="scale(0.707)" xlink:href="#E1-MJMATHI-3BB" x="0" y="0"></use>
 <use transform="scale(0.574)" xlink:href="#E1-MJMAIN-31" x="718" y="-243"></use>
</g>
</g>
</g>
</g>
 <use xlink:href="#E1-MJMAIN-30" x="668" y="-867"></use>
</g>
<g transform="translate(2827,0)">
 <use xlink:href="#E1-MJMAIN-30" x="668" y="1286"></use>
<g transform="translate(0,-867)">
<g transform="translate(120,0)">
<rect stroke="none" width="1598" height="60" x="0" y="220"></rect>
 <use transform="scale(0.707)" xlink:href="#E1-MJMAIN-31" x="879" y="629"></use>
<g transform="translate(60,-577)">
 <use transform="scale(0.707)" xlink:href="#E1-MJSZ1-221A" x="0" y="-18"></use>
<rect stroke="none" width="770" height="42" x="707" y="546"></rect>
<g transform="translate(707,0)">
 <use transform="scale(0.707)" xlink:href="#E1-MJMATHI-3BB" x="0" y="0"></use>
 <use transform="scale(0.574)" xlink:href="#E1-MJMAIN-32" x="718" y="-243"></use>
</g>
</g>
</g>
</g>
</g>
</g>
<g transform="translate(5667,2203)">
 <use xlink:href="#E1-MJSZ4-23A4" x="0" y="-1155"></use>
<g transform="translate(0,-2155.953111347987) scale(1,0.6715640320862141)">
 <use xlink:href="#E1-MJSZ4-23A5"></use>
</g>
 <use xlink:href="#E1-MJSZ4-23A6" x="0" y="-3263"></use>
</g>
</g>
<g transform="translate(9740,0)">
 <use xlink:href="#E1-MJMAIN-29" x="0" y="0"></use>
 <use transform="scale(0.707)" xlink:href="#E1-MJMAIN-22A4" x="550" y="583"></use>
</g>
 <use xlink:href="#E1-MJMAIN-28" x="10780" y="0"></use>
<g transform="translate(11169,0)">
 <use xlink:href="#E1-MJMATHI-58" x="0" y="0"></use>
 <use xlink:href="#E1-MJMAIN-20D7" x="760" y="276"></use>
</g>
 <use xlink:href="#E1-MJMAIN-2212" x="12244" y="0"></use>
<g transform="translate(13245,0)">
 <use xlink:href="#E1-MJMATHI-3BC" x="0" y="0"></use>
 <use xlink:href="#E1-MJMAIN-20D7" x="564" y="35"></use>
</g>
 <use xlink:href="#E1-MJMAIN-29" x="13848" y="0"></use>
 <use xlink:href="#E1-MJMAIN-5D" x="14238" y="0"></use>
</g>
</g>
</g>
</g>
</svg>